<?xml version="1.0" ?><svg style="enable-background:new 0 0 512 512;" version="1.1" viewBox="0 0 512 512" xml:space="preserve" xmlns="http://www.w3.org/2000/svg" xmlns:xlink="http://www.w3.org/1999/xlink"><style type="text/css">
	.st0{display:none;fill:#FDFDFD;}
	.st1{fill:#05CC47;}
</style><g id="Layer_1"/><g id="Layer_2"><g><path class="st0" d="M512.4,512.4c-170.7,0-341.3,0-512,0c0-170.7,0-341.3,0-512c170.7,0,341.3,0,512,0    C512.4,171.1,512.4,341.8,512.4,512.4z"/><path class="st1" d="M206.5,239.3c-1,0-1.8,0-2.7,0c-23.3,0-46.5,0-69.8,0c-0.4,0-0.9,0-1.3,0c-1.8,0-1.9,0-1.9-1.9    c0-23.3,0-46.6,0-70c0-2.2,0.1-1.8,2.1-1.8c33.9,0,67.8,0,101.8,0c0.4,0,0.9-0.1,1.3,0c1.2,0.2,1.7-0.4,2.3-1.4    c5.8-10.6,11.6-21.3,17.4-31.9c5.3-9.8,10.7-19.5,16-29.2c0.4-0.8,0.9-1.3,1.8-1.7c9.4-3.7,18.8-7.5,28.2-11.2    c8.7-3.4,17.5-6.8,26.2-10.2c0.9-0.4,1.8-0.7,2.7-1.2c1.3-0.7,2-0.4,2.4,1c3.3,11.4,6.6,22.8,9.8,34.2c2.1,7.3,4.2,14.6,6.3,21.8    c0.3,1.1,0.3,2-0.2,3c-6.9,15.4-13.8,30.8-20.8,46.2c-4.7,10.4-9.3,20.8-13.9,31.2c-3.7,8.3-7.4,16.5-11.1,24.8    c-2.7,6.1-5.3,12.2-8.1,18.2c-0.2,0.4-0.3,0.8-0.3,1.3c0.9,0,1.6,0,2.4,0c28.2,0,56.5,0,84.7,0c3.1,0,2.6-0.3,2.6,2.6    c0,24.3,0,48.6,0,73c0,2.8,0.3,2.5-2.5,2.5c-14.4,0-28.9,0-43.3,0c-6.1,0-12.2,0-18.3,0.2c-18.4,0.6-36.8,0.1-55.2,0.3    c-0.6,0-1.1,0.1-1.7,0c-1-0.1-1.5,0.4-1.9,1.2c-2.2,4.3-4.4,8.6-6.6,12.8c-5.1,9.9-10.2,19.8-15.3,29.7    c-5.1,9.8-10.2,19.6-15.2,29.4c-0.7,1.3-1.6,1.9-2.8,2.2c-12.1,3.6-24.1,7.3-36.2,10.9c-5.4,1.7-10.9,3.4-16.3,5    c-0.9,0.3-1.6,0.9-2.6,0.9c-1.2,0-1.7-0.3-2.1-1.4c-2.5-7.6-5-15.1-7.5-22.7c-2.8-8.3-5.5-16.7-8.4-25c-0.4-1-0.3-1.9,0.1-2.8    c5.2-12.3,10.3-24.6,15.4-36.9c5.6-13.4,11-26.9,16.6-40.3c4.8-11.7,9.7-23.3,14.6-35c3.2-7.8,6.5-15.6,9.7-23.5    C205.4,242.3,206.1,241.1,206.5,239.3z"/></g></g></svg>